<svg width="384" height="146" viewBox="0 0 384 146" fill="none" xmlns="http://www.w3.org/2000/svg">
<path d="M69.6 143V117H0.6V96.6L66.2 2.99999H95.2V94.8H113.6V117H95.2V143H69.6ZM28 94.8H71.2V31.2L28 94.8ZM191.125 145.4C178.192 145.4 167.125 142.4 157.925 136.4C148.725 130.267 141.592 121.8 136.525 111C131.592 100.067 129.125 87.4 129.125 73C129.125 58.7333 131.592 46.1333 136.525 35.2C141.592 24.2667 148.725 15.8 157.925 9.8C167.125 3.66666 178.192 0.599998 191.125 0.599998C204.058 0.599998 215.125 3.66666 224.325 9.8C233.525 15.8 240.592 24.2667 245.525 35.2C250.592 46.1333 253.125 58.7333 253.125 73C253.125 87.4 250.592 100.067 245.525 111C240.592 121.8 233.525 130.267 224.325 136.4C215.125 142.4 204.058 145.4 191.125 145.4ZM191.125 122.4C201.658 122.4 210.258 118 216.925 109.2C223.592 100.4 226.925 88.3333 226.925 73C226.925 57.6667 223.592 45.6 216.925 36.8C210.258 28 201.658 23.6 191.125 23.6C180.458 23.6 171.792 28 165.125 36.8C158.592 45.6 155.325 57.6667 155.325 73C155.325 88.3333 158.592 100.4 165.125 109.2C171.792 118 180.458 122.4 191.125 122.4ZM339.717 143V117H270.717V96.6L336.317 2.99999H365.317V94.8H383.717V117H365.317V143H339.717ZM298.117 94.8H341.317V31.2L298.117 94.8Z" fill="#262626"/>
</svg>
